<svg width="12" height="11" viewBox="0 0 12 11" fill="none" xmlns="http://www.w3.org/2000/svg">
<path d="M5.3343 1.04889C5.5443 0.404194 6.4564 0.404194 6.6657 1.04889L7.4147 3.35329C7.46046 3.49364 7.54942 3.61592 7.66885 3.70267C7.78829 3.78941 7.93209 3.83618 8.0797 3.83629H10.5031C11.1814 3.83629 11.4628 4.70429 10.9147 5.10329L8.9547 6.52709C8.83502 6.61391 8.74591 6.7364 8.70014 6.87699C8.65436 7.01758 8.65428 7.16905 8.6999 7.30969L9.4489 9.61409C9.6589 10.2588 8.9204 10.7957 8.3709 10.3967L6.4109 8.97289C6.29135 8.8861 6.14739 8.83935 5.99965 8.83935C5.85191 8.83935 5.70796 8.8861 5.5884 8.97289L3.6284 10.3967C3.0796 10.7957 2.3418 10.2588 2.5511 9.61409L3.3001 7.30969C3.34572 7.16905 3.34564 7.01758 3.29987 6.87699C3.2541 6.7364 3.16498 6.61391 3.0453 6.52709L1.086 5.10399C0.537903 4.70499 0.820003 3.83699 1.4976 3.83699H3.9203C4.06804 3.83703 4.21199 3.79033 4.33157 3.70357C4.45114 3.61681 4.54021 3.49445 4.586 3.35399L5.335 1.04959L5.3343 1.04889Z" fill="#E6E6E6"/>
</svg>
