<svg width="14" height="14" viewBox="0 0 14 14" fill="none" xmlns="http://www.w3.org/2000/svg">
<path d="M13.4533 2.99414C12.9775 3.20469 12.4689 3.34688 11.933 3.4125C12.4799 3.08438 12.901 2.56484 13.0979 1.94687C12.5865 2.25039 12.0205 2.47187 11.4162 2.58945C10.9322 2.07266 10.2432 1.75 9.48301 1.75C8.02012 1.75 6.83613 2.93672 6.83613 4.39961C6.83613 4.60742 6.85801 4.80977 6.90449 5.00391C4.70332 4.89453 2.75098 3.83906 1.44668 2.23398C1.21973 2.625 1.08848 3.08164 1.08848 3.56562C1.08848 4.48437 1.55879 5.29648 2.26973 5.77227C1.83223 5.76133 1.42207 5.64102 1.0666 5.44141V5.47422C1.0666 6.75937 1.97988 7.82852 3.19121 8.07188C2.96973 8.13203 2.73457 8.16484 2.49395 8.16484C2.32441 8.16484 2.15762 8.14844 1.99629 8.11562C2.33262 9.16836 3.31152 9.93398 4.4709 9.95586C3.56582 10.6668 2.42285 11.0906 1.18145 11.0906C0.968164 11.0906 0.757617 11.077 0.549805 11.0523C1.71738 11.8125 3.10918 12.25 4.60215 12.25C9.47754 12.25 12.1408 8.21133 12.1408 4.70859C12.1408 4.59375 12.1381 4.47891 12.1326 4.3668C12.6494 3.99219 13.0979 3.52734 13.4533 2.99414Z" fill="white"/>
</svg>
