<svg width="14" height="14" viewBox="0 0 14 14" fill="none" xmlns="http://www.w3.org/2000/svg">
<path d="M6.99982 5.17751C5.9963 5.17751 5.17736 5.99645 5.17736 6.99997C5.17736 8.00348 5.9963 8.82243 6.99982 8.82243C8.00334 8.82243 8.82228 8.00348 8.82228 6.99997C8.82228 5.99645 8.00334 5.17751 6.99982 5.17751ZM12.4658 6.99997C12.4658 6.24528 12.4727 5.49743 12.4303 4.74411C12.3879 3.86911 12.1883 3.09254 11.5485 2.4527C10.9072 1.81149 10.132 1.61325 9.25705 1.57087C8.50236 1.52848 7.75451 1.53532 7.00119 1.53532C6.2465 1.53532 5.49865 1.52848 4.74533 1.57087C3.87033 1.61325 3.09377 1.81286 2.45392 2.4527C1.81271 3.09391 1.61447 3.86911 1.57209 4.74411C1.5297 5.49879 1.53654 6.24665 1.53654 6.99997C1.53654 7.75329 1.5297 8.5025 1.57209 9.25583C1.61447 10.1308 1.81408 10.9074 2.45392 11.5472C3.09513 12.1884 3.87033 12.3867 4.74533 12.4291C5.50002 12.4714 6.24787 12.4646 7.00119 12.4646C7.75588 12.4646 8.50373 12.4714 9.25705 12.4291C10.132 12.3867 10.9086 12.1871 11.5485 11.5472C12.1897 10.906 12.3879 10.1308 12.4303 9.25583C12.474 8.5025 12.4658 7.75465 12.4658 6.99997ZM6.99982 9.80407C5.44806 9.80407 4.19572 8.55172 4.19572 6.99997C4.19572 5.44821 5.44806 4.19586 6.99982 4.19586C8.55158 4.19586 9.80392 5.44821 9.80392 6.99997C9.80392 8.55172 8.55158 9.80407 6.99982 9.80407ZM9.91877 4.7359C9.55646 4.7359 9.26388 4.44333 9.26388 4.08102C9.26388 3.71872 9.55646 3.42614 9.91877 3.42614C10.2811 3.42614 10.5737 3.71872 10.5737 4.08102C10.5738 4.16705 10.5569 4.25226 10.524 4.33176C10.4911 4.41126 10.4429 4.4835 10.3821 4.54433C10.3212 4.60517 10.249 4.6534 10.1695 4.68627C10.09 4.71915 10.0048 4.73601 9.91877 4.7359Z" fill="white"/>
</svg>
